PathFileType	4	(X/Y/Z)	pose_F01_0-91.trc
DataRate	CameraRate	NumFrames	NumMarkers	Units	OrigDataRate	OrigDataStartFrame	OrigNumFrames
30	30	5	21	m	30	22	91
Frame#	Time	CHip			RHip			RKnee			RAnkle			RBigToe			RSmallToe			RHeel			LHip			LKnee			LAnkle			LBigToe			LSmallToe			LHeel			Neck			Nose			RShoulder			RElbow			RWrist			LShoulder			LElbow			LWrist			
		X1	Y1	Z1	X2	Y2	Z2	X3	Y3	Z3	X4	Y4	Z4	X5	Y5	Z5	X6	Y6	Z6	X7	Y7	Z7	X8	Y8	Z8	X9	Y9	Z9	X10	Y10	Z10	X11	Y11	Z11	X12	Y12	Z12	X13	Y13	Z13	X14	Y14	Z14	X15	Y15	Z15	X16	Y16	Z16	X17	Y17	Z17	X18	Y18	Z18	X19	Y19	Z19	X20	Y20	Z20	X21	Y21	Z21	
22	0.7333333333333333	-0.25340105308058525	1.8241858851439567	-0.4559128264639527	-0.2644805867538989	1.820686626124028	-0.3978220409923761	-0.26601751223600784	1.6767960959862163	-0.40574588433360625	-0.2636334190740826	1.538528951774502	-0.4020881966684321	-0.21685274675649896	1.5039728409083812	-0.37882624777792023	-0.23208744191929154	1.5086289174492515	-0.3615332777345145	-0.271487885964032	1.5242665747958626	-0.4061026269948777	-0.23737712205883316	1.8276117162220578	-0.5180847161203432	-0.23731923891396248	1.6801299645614327	-0.49692206436441	-0.3414443312303327	1.5775473593293865	-0.5831729906877106	-0.45020322616867614	1.5288441512648838	-0.9856717432875501	-0.3028174340706399	1.5512598011683938	-0.5899403905133028	-0.35835001243436987	1.5690580424938385	-0.5788749617948774	-0.25994656758805523	1.9887302108359879	-0.47912303237419507	-0.21854642120505838	2.044131595777604	-0.4728535374096505	-0.2721803425914398	1.984668400522093	-0.39461796773639046	-0.2172575304501913	1.9544559258449947	-0.3625922802753184	-0.2045793377670638	2.037462978924415	-0.41114699793783704	-0.25082240821486734	1.9933765620084205	-0.5544044955173776	-0.2676973532835008	1.9380200163389023	-0.6569773897080416	-0.26947525819925183	1.8842249718517703	-0.5816917661396277
23	0.7666666666666667	-0.25313543599077293	1.8265662293633464	-0.45637445527587955	-0.262495435609911	1.821629774106355	-0.4001256762608882	-0.2659866391728309	1.6765486061722907	-0.4057385975853613	-0.26381613749694377	1.5401168143706898	-0.4018939859107599	-0.21703848281567445	1.5047573505626946	-0.3788808724117301	-0.23247424497828553	1.5081684254205527	-0.36098420458588654	-0.26996137795014	1.5245790766007263	-0.40739834074575215	-0.23823047001213027	1.8314241845408874	-0.5218383761974151	-0.23563569900115322	1.6855418338992891	-0.4991122414212979	-0.3414443312303327	1.5775473593293865	-0.5831729906877106	-0.45020322616867614	1.5288441512648838	-0.9856717432875501	-0.3028174340706399	1.5512598011683938	-0.5899403905133028	-0.35835001243436987	1.5690580424938385	-0.5788749617948774	-0.26068424617921665	1.9908957046379843	-0.4737814912840458	-0.21944546064647497	2.05025490431162	-0.4769153354046693	-0.26932135395965423	1.984683729654638	-0.39331464639028607	-0.22125213885950587	1.9465904476193665	-0.35654788614154576	-0.19496676521566936	2.0143040698113044	-0.3736247309466558	-0.25524662546318017	1.9990592385611157	-0.5529488869633632	-1.2931754663913677	1.8682172755253939	0.39256957190681346	-0.26947525819925183	1.8842249718517703	-0.5816917661396277
24	0.8	-0.2546745361680538	1.8236399514062636	-0.4589933799060638	-0.26466309155118095	1.8193514440151617	-0.3976690812729536	-0.26801318715257694	1.6764241613756945	-0.40363001564068934	-0.26349638871541353	1.5375934974306913	-0.40243734269883674	-0.21644703931377543	1.5044118741389458	-0.3795057560734424	-0.23197912376405636	1.5081392529162838	-0.36155608348726814	-0.2703088945740377	1.5202357881485986	-0.4111674756419182	-0.24065095585064833	1.8278775419107622	-0.5276887367127115	-0.23625414437579348	1.6826986394849541	-0.5026984786950109	-0.3414443312303327	1.5775473593293865	-0.5831729906877106	-0.45020322616867614	1.5288441512648838	-0.9856717432875501	-0.3028174340706399	1.5512598011683938	-0.5899403905133028	-0.35835001243436987	1.5690580424938385	-0.5788749617948774	-0.25696041369173067	1.9886660394997266	-0.4780963600681761	-0.21354762574388705	2.0499850123210073	-0.49289836607901644	-0.2680974678364879	1.9844567089854912	-0.39020468443866024	-0.224688433872098	1.9273846006121507	-0.3543650606159256	-0.18374338891233516	1.9849085474282673	-0.36213136017987596	-0.25163432392923674	1.9952622419339143	-0.5574812573325205	-1.2959110455204081	1.867511739815345	0.39550592046370814	-0.26947525819925183	1.8842249718517703	-0.5816917661396277
25	0.8333333333333334	-0.25623363269283317	1.8201337201484014	-0.4617109125471885	-0.26451937040791956	1.8147386400932186	-0.4021072812836302	-0.2678756311047414	1.6751597934449365	-0.4037558018257237	-0.2634604946700088	1.540509667176152	-0.4024158254059908	-0.21665072780626227	1.505563956279031	-0.3796126975868548	-0.232306982934739	1.5073876029828346	-0.36096722074668314	-0.27078040071480125	1.5253505749760787	-0.41126637534551447	-0.24368523311336338	1.8246783711596815	-0.5284781373464256	-0.24128269893518187	1.681838660316203	-0.5106158930180413	-0.3414443312303327	1.5775473593293865	-0.5831729906877106	-0.45020322616867614	1.5288441512648838	-0.9856717432875501	-0.3028174340706399	1.5512598011683938	-0.5899403905133028	-0.35835001243436987	1.5690580424938385	-0.5788749617948774	-0.25786058800438616	1.9889418844843656	-0.4814589354317952	-0.21447004784589094	2.05288746158403	-0.5049937465565925	-0.2644595790437293	1.9835134736359743	-0.39453773501054185	-0.23989531490847396	1.9127479071645337	-0.3486835902371394	-0.18941081817299127	1.9324428618588665	-0.340340969988841	-0.25161023418601425	1.9928054642772703	-0.5656157229644346	-1.2908076167451858	1.8677412289425062	0.3845583151266691	-0.26947525819925183	1.8842249718517703	-0.5816917661396277
26	0.8666666666666667	-0.2572567173324439	1.8233171000712272	-0.46538755520672287	-0.26428227045420166	1.8189073380326726	-0.40295842513367064	-0.2668820531412344	1.6780246527474891	-0.40954414321315374	-0.26374125664367754	1.538793928518424	-0.4063886080123411	-0.21760714650597368	1.5071647612697883	-0.3835539716655675	-0.23322611258192194	1.510106225533528	-0.3607148710867628	-0.27209769994912936	1.5243723066029928	-0.41007306078191236	-0.24397195442581862	1.8263536860739666	-0.5286998536114536	-0.24194021211361832	1.6899505899125273	-0.5153466457089084	-0.3414443312303327	1.5775473593293865	-0.5831729906877106	-0.45020322616867614	1.5288441512648838	-0.9856717432875501	-0.3028174340706399	1.5512598011683938	-0.5899403905133028	-0.35835001243436987	1.5690580424938385	-0.5788749617948774	-0.2601214163579073	1.989316861670642	-0.48818498427586865	-0.21823080812210421	2.0558631128419362	-0.5179773539664266	-0.2646979276035634	1.9837450071048277	-0.403021844687235	-0.2463298322195794	1.9106882047059428	-0.35982605196775536	-0.19507824743364738	1.8799771762894655	-0.3185505797978061	-0.2568622128349885	1.9929263160714812	-0.5648448898914032	-1.2832061570547537	1.8675190709997491	0.3713213197056848	-0.26947525819925183	1.8842249718517703	-0.5816917661396277
